<svg id="Layer_1" data-name="Layer 1" xmlns="http://www.w3.org/2000/svg" width="270.6" height="270.6" viewBox="0 0 270.6 270.6"><title>c4d</title><rect width="270.6" height="270.6" rx="6" fill="#c6c8ca"/><path d="M32.2,236.1a16.4,16.4,0,0,1-1.2,4.6,10.8,10.8,0,0,1-2.6,3.7,12.2,12.2,0,0,1-4,2.4,15.5,15.5,0,0,1-5.5.9,14.6,14.6,0,0,1-6-1.2,11.5,11.5,0,0,1-4.6-3.3,16.3,16.3,0,0,1-2.9-5.4,22.8,22.8,0,0,1-1-7.2,20.8,20.8,0,0,1,1.1-7.3,15.7,15.7,0,0,1,3-5.4,14.3,14.3,0,0,1,4.7-3.3,13.5,13.5,0,0,1,5.7-1.1,15.6,15.6,0,0,1,5.2.7,11.9,11.9,0,0,1,3.8,2.2,11.6,11.6,0,0,1,2.4,3.4,18.1,18.1,0,0,1,1.5,4.3l-4.1.7a23.9,23.9,0,0,0-1.1-3.2,7.4,7.4,0,0,0-1.7-2.4,7.2,7.2,0,0,0-2.5-1.6,11.3,11.3,0,0,0-3.5-.5,8.8,8.8,0,0,0-4.3,1,10.3,10.3,0,0,0-3.2,2.7,15.6,15.6,0,0,0-2,4.3,23.2,23.2,0,0,0-.6,5.5,23.8,23.8,0,0,0,.6,5.5,16.3,16.3,0,0,0,2,4.2,10.6,10.6,0,0,0,3.2,2.8,10.2,10.2,0,0,0,4.4.9,14,14,0,0,0,3.8-.5,7.8,7.8,0,0,0,2.6-1.7,7.2,7.2,0,0,0,1.6-2.5,13.5,13.5,0,0,0,.9-3.2Z" transform="translate(9 9)" fill="#111427"/><path d="M39.8,214.3H44v32.6H39.8Z" transform="translate(9 9)" fill="#111427"/><path d="M53,214.3h4.1l16.6,25.9V214.3h4.1v32.6h-4L57.1,221.1v25.8H53Z" transform="translate(9 9)" fill="#111427"/><path d="M86.8,214.3h21.1V218H91v10.2h16v3.7H91v11.3h17.8l-.7,3.7H86.8Z" transform="translate(9 9)" fill="#111427"/><path d="M113.9,214.3h5.2l10.5,27.5,10.7-27.5h5v32.6h-3.9V221.2l-10.2,25.7h-3.4l-10-25.6v25.6h-3.9Z" transform="translate(9 9)" fill="#111427"/><path d="M163.9,214.3h4.5L181,246.9h-4.6l-3.4-9.1H159.1l-3.5,9.1h-4.3Zm7.8,19.8L166,219l-5.7,15.1Z" transform="translate(9 9)" fill="#111427"/><path d="M197.1,236l15-20.7H216v20.5h4.4l-.6,3.2H216v7.9h-3.8V239H197.1Zm15.1-.2V220.6l-10.9,15.2Z" transform="translate(9 9)" fill="#111427"/><path d="M225.1,214.3h11.4a17.7,17.7,0,0,1,6.3,1,11.7,11.7,0,0,1,4.8,2.9,14.4,14.4,0,0,1,3,5.1,21.1,21.1,0,0,1,1,7,22.9,22.9,0,0,1-1.1,7.3,13.4,13.4,0,0,1-3.2,5.1,13.2,13.2,0,0,1-5.1,3.1,20.6,20.6,0,0,1-6.8,1.1H225.1Zm10.5,28.9c4,0,7-1.1,8.9-3.4s2.7-5.4,2.7-9.4a22,22,0,0,0-.6-5.3,10.2,10.2,0,0,0-1.9-3.9,8.6,8.6,0,0,0-3.4-2.5,13.4,13.4,0,0,0-4.8-.8h-7.2v25.3Z" transform="translate(9 9)" fill="#111427"/><ellipse cx="128.3" cy="123.1" rx="75.7" ry="71.8" fill="#abadc8"/><path d="M78.6,72.8S9.9,130.9,114,183.3L91,179S32,149.3,46.2,99.3,81.5,54.3,78.6,72.8Z" transform="translate(9 9)" fill="#7c7e96"/><circle cx="147.1" cy="95.5" r="66.9" fill="#1b1e35"/><circle cx="154.7" cy="86.7" r="54.6" fill="#111427"/><path d="M196.2,60c.1,3.1-8.9-1.6-17.1,16.4-5.7,12.5-8.9,37.8-37.9,41.1s-49.5-31.9-33-55c14.7-20.7,48-9.5,56.2-33.7C166,24,195.1,40.3,196.2,60Z" transform="translate(9 9)" fill="#272860"/><path d="M128,7.8a91.6,91.6,0,1,0,91.6,91.5A91.6,91.6,0,0,0,128,7.8ZM204.9,60c-1.5,0-11.1-2-14.5,15.9-5.1,26.8-3.1,40.1-16.6,66.2-16.1,31.2-61.7,52.8-99.4,22.1S44.2,80.1,83.7,57.9s50-15,67.3-21.8,12.6-16.5,12.6-16.5C195.3,32.1,206.4,60,204.9,60Z" transform="translate(9 9)" fill="#fff" stroke="#bcbec0" stroke-miterlimit="10" stroke-width="3"/><path d="M169.2,93.3S137,131.8,118,90.7c-16-34.6-20.6,24.4,21.3,23.4C162.1,113.5,169.2,93.3,169.2,93.3Z" transform="translate(9 9)" fill="#7b7e9d"/><path d="M192.5,58.4s-6.1-19.7-25.9-25.8c0,0-1.5-4,2-2s15.3,5.5,25.2,23.7C193.8,54.3,197.2,61.3,192.5,58.4Z" transform="translate(9 9)" fill="#7b7e9d"/></svg>