<svg xmlns="http://www.w3.org/2000/svg"><symbol id="ae-icon" viewBox="0 0 256 246"><path fill="#c38bfb" d="M-.5-1.8h257v249.7H-.5z"/><path fill="#251201" d="M10.4 8.7h235.2v228.53H10.4z"/><path fill="#c990fb" d="M100.2 55.8H76.7c-1 0 0 3.1-1 8.8L43.9 172.3a1.3 1.3 0 0 0 1.4 1.3h16.6a1.4 1.4 0 0 0 1.4-1.3l8.5-31.4H106l7.8 31.4a1.3 1.3 0 0 0 1.4 1.3h17.9a1.3 1.3 0 0 0 1.3-1.3S101.2 55.8 100.2 55.8zm-24.7 67.5l13-49.9 12.8 49.9zm92-37.6c-33.8 10.1-39 64-10.1 84.1 12.7 8.8 36.6 5.3 43.5 1.4 1.3-.8 1.8-16.9.9-16.6-22 7.6-33.2 1.9-38.1-3s-4.6-17.6-4.6-17.6h45.7c2.9 0 2.8-5.8 2.9-7.8 2-29.3-18.6-46.9-40.2-40.5zm-8.7 33.7c-.2-7.4 6.3-19.6 17.6-18.6s12.7 13.1 12.7 18.6c0 0-30.2.4-30.3 0z"/></symbol><symbol id="ai-c4d-icon" viewBox="0 0 554 246"><path fill="#ff7c00" d="M0-1.3h255.9v248.64H0z"/><path fill="#251201" d="M10.8 9.2H245v227.56H10.8z"/><g fill="#fd872a"><path d="M119.7 53.3H96.5c-1 0-.2 1.5-1.1 7.3L64.9 166.2a1.3 1.3 0 0 0 1.3 1.4h16.1a1.3 1.3 0 0 0 1.3-1.4l7.7-30.9h33.5l7.8 30.9a1.4 1.4 0 0 0 1.4 1.4h17.3a1.3 1.3 0 0 0 1.3-1.3s-31.9-113-32.9-113zm-24.2 65.1l12.4-49.8 12.6 49.8z"/><rect width="18.8" height="84.28" x="167.8" y="83.3" rx="1.3"/><circle cx="177.2" cy="61.3" r="11"/></g><path fill="#071e26" d="M297.6-1.5H554v249.09H297.6z"/><rect width="235.4" height="227.66" x="308.1" y="9.2" fill="#f2f2f2" rx="5.1"/><path fill="#101427" d="M346.7 215.4a12.5 12.5 0 0 1-1.1 3.9 8.4 8.4 0 0 1-2.2 3.1 10.8 10.8 0 0 1-3.3 2 13.1 13.1 0 0 1-4.6.7 13.6 13.6 0 0 1-5.1-.9 12.1 12.1 0 0 1-3.9-2.8 15.4 15.4 0 0 1-2.4-4.6 18.5 18.5 0 0 1-.9-6 17.2 17.2 0 0 1 1-6.2 12.2 12.2 0 0 1 2.5-4.5 10.8 10.8 0 0 1 3.9-2.8 11.3 11.3 0 0 1 4.9-1 12 12 0 0 1 4.4.7 8.7 8.7 0 0 1 3.1 1.8 10.3 10.3 0 0 1 2.1 2.9 19 19 0 0 1 1.2 3.6l-3.5.6a10.7 10.7 0 0 0-.9-2.7 6 6 0 0 0-1.4-2.1 7.4 7.4 0 0 0-2.1-1.3 8.5 8.5 0 0 0-2.9-.4 8 8 0 0 0-3.6.8 7.5 7.5 0 0 0-2.7 2.3 10 10 0 0 0-1.7 3.6 16.5 16.5 0 0 0-.6 4.6 17.3 17.3 0 0 0 .6 4.7 10.4 10.4 0 0 0 1.7 3.5 6.7 6.7 0 0 0 2.7 2.3 6.9 6.9 0 0 0 3.6.9 9.3 9.3 0 0 0 3.2-.5 5.5 5.5 0 0 0 2.2-1.4 6 6 0 0 0 1.4-2.1 10.7 10.7 0 0 0 .7-2.7zM353 197h3.5v27.4H353zm11.1 0h3.5l14 21.8V197h3.4v27.4h-3.4l-14-21.6v21.6h-3.5zm28.5 0h17.7v3.1h-14.2v8.6h13.5v3.2h-13.5v9.4h15l-.6 3.1h-17.9zm22.8 0h4.4l8.8 23.2 9-23.2h4.2v27.4h-3.2v-21.6l-8.6 21.6h-2.9l-8.5-21.5v21.5h-3.2zm42.1 0h3.7l10.6 27.4H468l-2.9-7.6h-11.7l-2.9 7.6h-3.7zm6.5 16.7l-4.8-12.7-4.8 12.7zm21.4 1.6l12.6-17.4h3.3v17.2h3.6l-.4 2.7h-3.2v6.6h-3.2v-6.6h-12.7zm12.7-.2v-12.8l-9.2 12.8zm10.8-18.1h9.6a18 18 0 0 1 5.4.8 9.6 9.6 0 0 1 3.9 2.6 11.1 11.1 0 0 1 2.6 4.2 17.9 17.9 0 0 1 .8 5.9 18.7 18.7 0 0 1-.9 6.1 10.5 10.5 0 0 1-2.7 4.3 10 10 0 0 1-4.3 2.6 17 17 0 0 1-5.7.9h-8.7zm8.9 24.4c3.4 0 5.9-1 7.4-2.9s2.4-4.5 2.4-7.9a14.6 14.6 0 0 0-.6-4.4 7.2 7.2 0 0 0-1.6-3.4 5.8 5.8 0 0 0-2.8-2 10 10 0 0 0-4.1-.8h-6.1v21.4z"/><ellipse cx="419.9" cy="112.7" fill="#aaadc8" rx="63.7" ry="60.4"/><path fill="#7c7e95" d="M385.7 78s-57.8 48.9 29.7 92.9l-19.3-3.5s-49.6-25.1-37.7-67.1 29.8-37.9 27.3-22.3z"/><circle cx="435.8" cy="89.5" r="56.3" fill="#1b1e35"/><circle cx="442.1" cy="82.1" r="46" fill="#101427"/><path fill="#272760" d="M484.6 67.2c.1 2.6-7.5-1.3-14.4 13.8-4.7 10.5-7.4 31.8-31.8 34.6s-41.7-26.8-27.8-46.3C423 51.9 451 61.4 457.8 41c1.4-4 25.9 9.7 26.8 26.2z"/><path fill="#fff" stroke="#bbbdbf" stroke-miterlimit="10" stroke-width="2.52" d="M427.2 23.3a77 77 0 1 0 77.1 77 77 77 0 0 0-77.1-77zm64.7 43.9c-1.2 0-9.3-1.7-12.2 13.4-4.3 22.5-2.6 33.7-13.9 55.7-13.6 26.2-51.9 44.4-83.6 18.5s-25.5-70.7 7.8-89.3 42-12.6 56.6-18.4 10.6-13.9 10.6-13.9c26.7 10.6 36 34 34.7 34z"/><path fill="#7b7e9d" d="M461.9 95.3s-27.1 32.3-43-2.2c-13.5-29.2-17.4 20.5 17.9 19.6 19.1-.5 25.1-17.4 25.1-17.4zm19.6-29.4s-5.1-16.6-21.8-21.8c0 0-1.3-3.3 1.7-1.6s12.9 4.6 21.2 19.9c0 0 2.9 5.9-1.1 3.5z"/></symbol><symbol id="ai-icon" viewBox="0 0 256 246"><path fill="#ff7c00" d="M0-1.3h255.9v248.64H0z"/><path fill="#251201" d="M10.9 9.2h234.2v227.56H10.9z"/><path fill="#fd872a" d="M119.8 53.3H96.6c-1 0-.3 1.5-1.2 7.3L64.9 166.2a1.4 1.4 0 0 0 1.4 1.4h16a1.4 1.4 0 0 0 1.4-1.4l7.7-30.9h33.4l7.9 30.9a1.3 1.3 0 0 0 1.3 1.4h17.4a1.2 1.2 0 0 0 1.2-1.3s-31.8-113-32.8-113zm-24.2 65.1l12.3-49.8 12.7 49.8z"/><rect width="18.8" height="84.28" x="167.9" y="83.3" fill="#fd872a" rx="1.3"/><circle cx="177.3" cy="61.3" r="11" fill="#fd872a"/></symbol><symbol id="ai-id-ps-icon" viewBox="0 0 836 246"><path fill="#ff7c00" d="M0-1.3h255.9v248.64H0z"/><path fill="#251201" d="M10.8 9.2H245v227.56H10.8z"/><g fill="#fd872a"><path d="M119.7 53.3H96.5c-1 0-.2 1.5-1.1 7.3L64.9 166.2a1.3 1.3 0 0 0 1.3 1.4h16.1a1.3 1.3 0 0 0 1.3-1.4l7.7-30.9h33.5l7.8 30.9a1.4 1.4 0 0 0 1.4 1.4h17.3a1.3 1.3 0 0 0 1.3-1.3s-31.9-113-32.9-113zm-24.2 65.1l12.4-49.8 12.6 49.8z"/><rect width="18.8" height="84.28" x="167.8" y="83.3" rx="1.3"/><circle cx="177.2" cy="61.3" r="11"/></g><path fill="#1db7dc" d="M579.6-1.5H836v249.09H579.6z"/><path fill="#071e26" d="M590.5 9h234.6v227.97H590.5z"/><path fill="#00c7ff" d="M715.3 91.8c-1.2-40.1-47.2-35.3-55.3-35.3h-15.6v116.8h18.5v-41.4c12.9 1.6 53.8 5.8 52.4-40.1zm-52.4 23.1V73.8c18.7 0 31.8-.3 31.8 19.6 0 23-19.4 21.6-31.8 21.5zm111.2-9a31.3 31.3 0 0 0-21.1-5.8c-12.3 1.2-12.5 12.1-7.4 14.7 7.6 4 24.5 8.5 31.2 22.3 4.1 8.3 4.1 27.3-17.4 33.8s-35.1-2.3-35.1-2.3V150s27.9 12.6 33.9 3.2c9.5-14.7-19.2-12.8-28.2-27.6-10.8-17.7.4-38.6 17.1-40.8s27.1 3.3 27.1 3.3z"/><path fill="#fd4193" d="M290.1-1.3h255.8v248.52H290.1z"/><path fill="#2f0013" d="M300.9 9.3H535v227.45H300.9z"/><g fill="#fc3c8f"><rect width="20.4" height="118.58" x="365.5" y="57.6" rx="1.7"/><path d="M475.3 165.7l.5-108.7a.9.9 0 0 0-.8-.8h-18.8a.8.8 0 0 0-.8.8v29h-8.6s-42.3.4-43 47.2c-.4 30.1 21.1 47.9 52.3 44.1 8.6-1 17-5.1 19.1-6.1.3-.2 1-.5.9-.8-.2-1.9-.8-3.7-.8-4.7zm-51-34.8c1.2-30.4 31.1-29.1 31.1-26.8-.4 10.5 0 55.2 0 55.2-20.7 4-31.9-10.2-31.1-28.4z"/></g></symbol><symbol id="c4d-icon" viewBox="0 0 256 246"><path fill="#071e26" d="M-.2-1.5h256.4v249.09H-.2z"/><rect width="235.4" height="227.66" x="10.3" y="9.2" fill="#f2f2f2" rx="5.1"/><path fill="#101427" d="M48.9 215.4a12.5 12.5 0 0 1-1.1 3.9 9.7 9.7 0 0 1-2.2 3.1 10.8 10.8 0 0 1-3.3 2 13.5 13.5 0 0 1-4.6.7 13.6 13.6 0 0 1-5.1-.9 12.1 12.1 0 0 1-3.9-2.8 15.4 15.4 0 0 1-2.4-4.6 18.5 18.5 0 0 1-.9-6 17.2 17.2 0 0 1 1-6.2 12.2 12.2 0 0 1 2.5-4.5 10.8 10.8 0 0 1 3.9-2.8 11.3 11.3 0 0 1 4.9-1 12 12 0 0 1 4.4.7 8.7 8.7 0 0 1 3.1 1.8 12.7 12.7 0 0 1 2.1 2.9 19 19 0 0 1 1.2 3.6l-3.5.6a10.7 10.7 0 0 0-.9-2.7 7.7 7.7 0 0 0-1.4-2.1 7.4 7.4 0 0 0-2.1-1.3 8.5 8.5 0 0 0-2.9-.4 8.7 8.7 0 0 0-3.7.8 8.2 8.2 0 0 0-2.6 2.3 10 10 0 0 0-1.7 3.6 16.5 16.5 0 0 0-.6 4.6 17.3 17.3 0 0 0 .6 4.7 10.4 10.4 0 0 0 1.7 3.5 7.1 7.1 0 0 0 2.6 2.3 7.5 7.5 0 0 0 3.7.9 9.8 9.8 0 0 0 3.2-.5 5.5 5.5 0 0 0 2.2-1.4 7.7 7.7 0 0 0 1.4-2.1 10.7 10.7 0 0 0 .7-2.7zm6.3-18.4h3.5v27.4h-3.5zm11.1 0h3.5l14 21.8V197h3.4v27.4h-3.4l-14.1-21.6v21.6h-3.4zm28.5 0h17.7v3.1H98.3v8.6h13.4v3.2H98.3v9.4h14.9l-.5 3.1H94.8zm22.8 0h4.4l8.8 23.2 9-23.2h4.2v27.4h-3.3v-21.6l-8.6 21.6h-2.8l-8.5-21.5v21.5h-3.2zm42.1 0h3.7l10.6 27.4h-3.8l-2.9-7.6h-11.7l-2.9 7.6H149zm6.5 16.7l-4.8-12.7-4.8 12.7zm21.4 1.6l12.6-17.4h3.3v17.2h3.6l-.4 2.7h-3.2v6.6h-3.2v-6.6h-12.7zm12.7-.2v-12.8l-9.2 12.8zm10.8-18.1h9.6a16.9 16.9 0 0 1 5.3.8 9.9 9.9 0 0 1 4 2.6 11.1 11.1 0 0 1 2.6 4.2 21 21 0 0 1 .8 5.9 18.7 18.7 0 0 1-.9 6.1 10.5 10.5 0 0 1-2.7 4.3 10 10 0 0 1-4.3 2.6 17 17 0 0 1-5.7.9h-8.7zm8.9 24.4c3.4 0 5.8-1 7.4-2.9s2.3-4.5 2.3-7.9a14.8 14.8 0 0 0-.5-4.4 8.3 8.3 0 0 0-1.6-3.4 6.3 6.3 0 0 0-2.8-2 10.3 10.3 0 0 0-4.1-.8h-6.1v21.4z"/><ellipse cx="122.1" cy="112.7" fill="#aaadc8" rx="63.7" ry="60.4"/><path fill="#7c7e95" d="M87.9 78s-57.8 48.9 29.7 92.9l-19.3-3.5s-49.6-25.1-37.7-67.1S90.3 62.4 87.9 78z"/><circle cx="138" cy="89.5" r="56.3" fill="#1b1e35"/><circle cx="144.3" cy="82.1" r="46" fill="#101427"/><path fill="#272760" d="M186.8 67.2c.1 2.6-7.5-1.3-14.4 13.8-4.8 10.5-7.4 31.8-31.9 34.6s-41.6-26.8-27.7-46.3c12.4-17.4 40.4-7.9 47.2-28.3 1.4-4 25.9 9.7 26.8 26.2z"/><path fill="#fff" stroke="#bbbdbf" stroke-miterlimit="10" stroke-width="2.52" d="M129.4 23.3a77 77 0 1 0 77.1 77 77 77 0 0 0-77.1-77zm64.7 43.9c-1.2 0-9.3-1.7-12.2 13.4-4.3 22.5-2.6 33.7-14 55.7-13.5 26.2-51.8 44.4-83.6 18.5s-25.4-70.7 7.8-89.3 42.1-12.6 56.7-18.4 10.6-13.9 10.6-13.9c26.7 10.6 36 34 34.7 34z"/><path fill="#7b7e9d" d="M164.1 95.3s-27.1 32.3-43-2.2c-13.5-29.2-17.4 20.5 17.9 19.6 19.1-.5 25.1-17.4 25.1-17.4zm19.6-29.4s-5.1-16.6-21.8-21.8c0 0-1.3-3.3 1.7-1.6s12.9 4.6 21.2 19.9c0 0 2.9 5.9-1.1 3.5z"/></symbol><symbol id="id-icon" viewBox="0 0 256 246"><path fill="#fd4193" d="M.1-1.3h255.8v248.52H.1z"/><path fill="#2f0013" d="M10.9 9.3H245v227.45H10.9z"/><rect width="20.4" height="118.58" x="75.5" y="57.6" fill="#fc3c8f" rx="1.7"/><path fill="#fc3c8f" d="M185.3 165.7l.5-108.7a.9.9 0 0 0-.8-.8h-18.8a.8.8 0 0 0-.8.8v29h-8.6s-42.3.4-43 47.2c-.4 30.1 21.1 47.9 52.3 44.1 8.6-1 17-5.1 19.1-6.1.3-.2 1-.5.9-.8-.2-1.9-.8-3.7-.8-4.7zm-51-34.8c1.2-30.4 31.1-29.1 31.1-26.8-.4 10.5 0 55.2 0 55.2-20.7 4-31.9-10.2-31.1-28.4z"/></symbol><symbol id="id-ps-icon" viewBox="0 0 555 246"><path fill="#1db7dc" d="M298.6-1.5H555v249.09H298.6z"/><path fill="#071e26" d="M309.5 9h234.6v227.97H309.5z"/><path fill="#00c7ff" d="M434.3 91.8c-1.2-40.1-47.2-35.3-55.3-35.3h-15.6v116.8h18.5v-41.4c12.9 1.6 53.8 5.8 52.4-40.1zm-52.4 23.1V73.8c18.7 0 31.8-.3 31.8 19.6 0 23-19.4 21.6-31.8 21.5zm111.2-9a31.3 31.3 0 0 0-21.1-5.8c-12.3 1.2-12.5 12.1-7.4 14.7 7.6 4 24.5 8.5 31.2 22.3 4.1 8.3 4.1 27.3-17.4 33.8s-35.1-2.3-35.1-2.3V150s27.9 12.6 33.9 3.2c9.5-14.7-19.2-12.8-28.2-27.6-10.8-17.7.4-38.6 17.1-40.8s27.1 3.3 27.1 3.3z"/><path fill="#fd4193" d="M0-1.3h255.8v248.52H0z"/><path fill="#2f0013" d="M10.8 9.3h234.1v227.45H10.8z"/><g fill="#fc3c8f"><rect width="20.4" height="118.58" x="75.4" y="57.6" rx="1.7"/><path d="M185.2 165.7l.5-108.7a.9.9 0 0 0-.8-.8h-18.8a.8.8 0 0 0-.8.8v29h-8.6s-42.3.4-43 47.2c-.5 30.1 21.1 47.9 52.3 44.1 8.6-1 17-5.1 19.1-6.1.3-.2 1-.5.9-.8-.2-1.9-.8-3.7-.8-4.7zm-51.1-34.8c1.3-30.4 31.2-29.1 31.2-26.8-.4 10.5 0 55.2 0 55.2-20.7 4-31.9-10.2-31.2-28.4z"/></g></symbol><symbol id="ps-icon" viewBox="0 0 256 246"><path fill="#1db7dc" d="M-.2-1.5h256.4v249.09H-.2z"/><path fill="#071e26" d="M10.7 9h234.6v227.97H10.7z"/><path fill="#00c7ff" d="M135.5 91.8c-1.2-40.1-47.3-35.3-55.3-35.3H64.6v116.8h18.5v-41.4c12.8 1.6 53.8 5.8 52.4-40.1zm-52.4 23.1V73.8c18.7 0 31.8-.3 31.8 19.6 0 23-19.4 21.6-31.8 21.5zm111.2-9a31.3 31.3 0 0 0-21.1-5.8c-12.4 1.2-12.5 12.1-7.4 14.7 7.6 4 24.5 8.5 31.2 22.3 4 8.3 4 27.3-17.4 33.8s-35.1-2.3-35.1-2.3V150s27.9 12.6 33.9 3.2c9.5-14.7-19.2-12.8-28.2-27.6-10.8-17.7.4-38.6 17.1-40.8s27.1 3.3 27.1 3.3z"/></symbol></svg>