<svg xmlns="http://www.w3.org/2000/svg"><symbol id="ae-icon" viewBox="0 0 257 247.1"><rect width="257" height="247.08" fill="#c38bfb" rx=".4"/><rect width="217.9" height="208.56" x="19.5" y="19.3" fill="#1f033e" rx=".3"/><path fill="#c990fb" d="M136.7 177.7c-2.5-8.5-31.8-107-32.2-107H76.4a.5.5 0 0 0-.5.7c.4 1.8 1.2 7.2-.1 11.4S50 168.2 47.5 176.7a.6.6 0 0 0 .5.7h20.5a.7.7 0 0 0 .5-.4l6.9-26.5h29.9l7.3 27.7c0 .3.2.4.5.4l22.6-.2a.5.5 0 0 0 .5-.7zm-56.3-44.9l9.4-36 1.2-6.5 1 7.6 9.2 35zm88-39.1c-33.4 10.1-35.1 61.7-9.4 80 12.9 9.1 39.7 4 46.2-2.5 1.1-1.1.4-10.3-.7-13.9a1.6 1.6 0 0 0-2.1-1.1c-22.6 7.9-31.4 2.5-35.3-1.4s-4.4-13.7-4.4-13.7l41-.3a5.5 5.5 0 0 0 5.9-5.2c2.2-27.5-15.2-49.9-41.2-41.9zm19.1 32.8c-5.5 0-23.8.5-23.8 0-.3-7.5 3.6-18.1 13.5-18.1s11.5 7.9 11.5 13.6c0 3.9 0 4.5-1.2 4.5z"/></symbol><symbol id="ai-icon" viewBox="0 0 262.9 255.4"><path fill="#ff7c00" d="M0 0h262.9v255.44H0z"/><path fill="#251201" d="M11.1 10.8h240.6v233.78H11.1z"/><path fill="#fd872a" d="M123 56.1H99.2c-1.1 0-.3 1.6-1.2 7.5L66.6 172.1a1.4 1.4 0 0 0 1.4 1.4h16.6a1.3 1.3 0 0 0 1.3-1.4l7.9-31.8h34.4l8.1 31.8a1.3 1.3 0 0 0 1.3 1.4h17.9a1.3 1.3 0 0 0 1.3-1.3S124.1 56.1 123 56.1zM98.1 123l12.8-51.2 12.9 51.2z"/><rect width="19.3" height="86.59" x="172.4" y="86.9" fill="#fd872a" rx="1.4"/><circle cx="182.1" cy="64.4" r="11.3" fill="#fd872a"/></symbol><symbol id="id-icon" viewBox="0 0 255.8 248.5"><path fill="#fd4193" d="M0 0h255.8v248.52H0z"/><path fill="#2f0013" d="M10.8 10.5h234.1v227.45H10.8z"/><rect width="20.4" height="118.58" x="75.4" y="58.8" fill="#fc3c8f" rx="1.7"/><path fill="#fc3c8f" d="M185.2 167l.5-108.7a.8.8 0 0 0-.8-.8h-18.8a.7.7 0 0 0-.8.8v28.9h-8.6s-42.3.4-43 47.3c-.5 30 21.1 47.9 52.3 44.1a63.8 63.8 0 0 0 19.1-6.2c.3-.1 1-.4.9-.8s-.8-3.6-.8-4.6zm-51.1-34.8c1.3-30.4 31.2-29.2 31.2-26.8-.4 10.4 0 55.2 0 55.2-20.7 3.9-31.9-10.2-31.2-28.4z"/></symbol><symbol id="ps-icon" viewBox="0 0 256.4 249.1"><path fill="#1db7dc" d="M0 0h256.4v249.09H0z"/><path fill="#071e26" d="M10.9 10.6h234.6v227.97H10.9z"/><path fill="#00c7ff" d="M135.7 93.4c-1.2-40.1-47.3-35.3-55.3-35.3H64.8v116.8h18.5v-41.4c12.8 1.6 53.8 5.7 52.4-40.1zm-52.4 23v-41c18.7-.1 31.8-.3 31.8 19.5 0 23-19.4 21.7-31.8 21.5zm111.2-9a31.8 31.8 0 0 0-21.1-5.7c-12.4 1.2-12.5 12-7.4 14.7 7.6 3.9 24.5 8.5 31.2 22.3 4 8.2 4 27.3-17.5 33.8s-35-2.3-35-2.3v-18.6s27.9 12.5 33.9 3.2c9.5-14.8-19.2-12.9-28.2-27.6-10.8-17.8.4-38.6 17-40.8s27.2 3.2 27.2 3.2z"/></symbol></svg>