<svg id="Layer_1" data-name="Layer 1" xmlns="http://www.w3.org/2000/svg" width="256" height="256" viewBox="0 0 256 256">
  <title>social-icon</title>
  <path d="M186.6,22.5a46,46,0,0,1,45.9,45.9V186.6a46,46,0,0,1-45.9,45.9H68.4a46,46,0,0,1-45.9-45.9V68.4A46,46,0,0,1,68.4,22.5H186.6m0-23H68.4A69,69,0,0,0-.5,68.4V186.6a69,69,0,0,0,68.9,68.9H186.6a69,69,0,0,0,68.9-68.9V68.4A69,69,0,0,0,186.6-.5Z"/>
  <path d="M128,85a43,43,0,1,1-43,43,43.1,43.1,0,0,1,43-43m0-23a66,66,0,1,0,66,66,65.9,65.9,0,0,0-66-66Z"/>
  <path d="M195,41a17,17,0,1,0,17,17,17,17,0,0,0-17-17Z"/>
</svg>
